<?xml version="1.0" encoding="UTF-8" standalone="no"?>
<svg
   width="191"
   height="191"
   viewBox="0 0 191 191"
   fill="none"
   version="1.1"
   id="svg32"
   sodipodi:docname="favicon.svg"
   inkscape:export-filename="C:\Users\shere\OneDrive\Documents\code\AIPoweredPoemsSheri\img\favicon.png"
   inkscape:export-xdpi="16.083769"
   inkscape:export-ydpi="16.083769"
   inkscape:version="1.1.2 (b8e25be833, 2022-02-05)"
   xmlns:inkscape="http://www.inkscape.org/namespaces/inkscape"
   xmlns:sodipodi="http://sodipodi.sourceforge.net/DTD/sodipodi-0.dtd"
   xmlns="http://www.w3.org/2000/svg"
   xmlns:svg="http://www.w3.org/2000/svg">
  <defs
     id="defs36" />
  <sodipodi:namedview
     id="namedview34"
     pagecolor="#ffffff"
     bordercolor="#666666"
     borderopacity="1.0"
     inkscape:pageshadow="2"
     inkscape:pageopacity="0.0"
     inkscape:pagecheckerboard="0"
     showgrid="false"
     inkscape:zoom="3.9005236"
     inkscape:cx="60.376509"
     inkscape:cy="95.371811"
     inkscape:window-width="1920"
     inkscape:window-height="1057"
     inkscape:window-x="-8"
     inkscape:window-y="-8"
     inkscape:window-maximized="1"
     inkscape:current-layer="svg32" />
  <path
     d="m 95.360561,3 c 17.006099,0 20.620799,61.7544 0,101.31"
     stroke="#997205"
     stroke-width="5"
     stroke-linecap="round"
     stroke-linejoin="round"
     id="path2"
     inkscape:export-filename="C:\Users\shere\OneDrive\Documents\code\AIPoweredPoemsSheri\img\favicon.png"
     inkscape:export-xdpi="8.0418844"
     inkscape:export-ydpi="8.0418844" />
  <path
     d="m 95.788461,3 c -17.0062,0 -20.6209,61.7544 0,101.31"
     stroke="#997205"
     stroke-width="5"
     stroke-linecap="round"
     stroke-linejoin="round"
     id="path4"
     inkscape:export-filename="C:\Users\shere\OneDrive\Documents\code\AIPoweredPoemsSheri\img\favicon.png"
     inkscape:export-xdpi="8.0418844"
     inkscape:export-ydpi="8.0418844" />
  <path
     d="m 138.43896,26.7332 c -12.9659,2.4442 -17.8279,49.6296 -39.990899,80.8548"
     stroke="#997205"
     stroke-width="5"
     stroke-linecap="round"
     stroke-linejoin="round"
     id="path6"
     inkscape:export-filename="C:\Users\shere\OneDrive\Documents\code\AIPoweredPoemsSheri\img\favicon.png"
     inkscape:export-xdpi="8.0418844"
     inkscape:export-ydpi="8.0418844" />
  <path
     d="m 138.19196,26.6573 c 19.152,13.6394 -2.898,56.5406 -39.743799,80.9307"
     stroke="#997205"
     stroke-width="5"
     stroke-linecap="round"
     stroke-linejoin="round"
     id="path8"
     inkscape:export-filename="C:\Users\shere\OneDrive\Documents\code\AIPoweredPoemsSheri\img\favicon.png"
     inkscape:export-xdpi="8.0418844"
     inkscape:export-ydpi="8.0418844" />
  <path
     d="m 52.560761,26.7332 c 12.966,2.4442 17.828,49.6296 39.991,80.8548"
     stroke="#997205"
     stroke-width="5"
     stroke-linecap="round"
     stroke-linejoin="round"
     id="path10"
     inkscape:export-filename="C:\Users\shere\OneDrive\Documents\code\AIPoweredPoemsSheri\img\favicon.png"
     inkscape:export-xdpi="8.0418844"
     inkscape:export-ydpi="8.0418844" />
  <path
     d="m 52.807961,26.6573 c -19.15178,13.6394 2.8979,56.5406 39.7437,80.9307"
     stroke="#997205"
     stroke-width="5"
     stroke-linecap="round"
     stroke-linejoin="round"
     id="path12"
     inkscape:export-filename="C:\Users\shere\OneDrive\Documents\code\AIPoweredPoemsSheri\img\favicon.png"
     inkscape:export-xdpi="8.0418844"
     inkscape:export-ydpi="8.0418844" />
  <path
     d="m 95.470561,188 c 8.260099,0 10.015799,-21.48 0,-35.238"
     stroke="#997205"
     stroke-width="5"
     stroke-linejoin="round"
     id="path14"
     inkscape:export-filename="C:\Users\shere\OneDrive\Documents\code\AIPoweredPoemsSheri\img\favicon.png"
     inkscape:export-xdpi="8.0418844"
     inkscape:export-ydpi="8.0418844" />
  <path
     d="m 95.678461,188 c -8.2602,0 -10.0159,-21.48 0,-35.238"
     stroke="#997205"
     stroke-width="5"
     stroke-linejoin="round"
     id="path16"
     inkscape:export-filename="C:\Users\shere\OneDrive\Documents\code\AIPoweredPoemsSheri\img\favicon.png"
     inkscape:export-xdpi="8.0418844"
     inkscape:export-ydpi="8.0418844" />
  <path
     d="m 89.373461,119.778 c 2.8218,-1.751 4.7484,-4.1 6.2546,-6.539 1.4554,2.455 3.3494,4.822 6.140199,6.621 -2.844099,1.766 -4.780199,4.116 -6.284599,6.537 -1.4521,-2.461 -3.3382,-4.829 -6.1102,-6.619 z"
     stroke="#997205"
     stroke-width="5"
     stroke-linejoin="round"
     id="path18"
     inkscape:export-filename="C:\Users\shere\OneDrive\Documents\code\AIPoweredPoemsSheri\img\favicon.png"
     inkscape:export-xdpi="8.0418844"
     inkscape:export-ydpi="8.0418844" />
  <ellipse
     cx="95.674461"
     cy="120.067"
     rx="2.5537601"
     ry="2.01899"
     fill="#997205"
     id="ellipse20"
     inkscape:export-filename="C:\Users\shere\OneDrive\Documents\code\AIPoweredPoemsSheri\img\favicon.png"
     inkscape:export-xdpi="8.0418844"
     inkscape:export-ydpi="8.0418844" />
  <ellipse
     cx="95.674461"
     cy="149.013"
     rx="2.5537601"
     ry="2.01899"
     fill="#997205"
     id="ellipse22"
     inkscape:export-filename="C:\Users\shere\OneDrive\Documents\code\AIPoweredPoemsSheri\img\favicon.png"
     inkscape:export-xdpi="8.0418844"
     inkscape:export-ydpi="8.0418844" />
  <path
     d="m 95.281261,138.359 -2.7318,-3.036 9.629999,-5.908 c 1.3612,-0.76 2.9233,-0.288 3.8136,0.649 0.4432,0.467 0.6854,1.022 0.6428,1.55 -0.0415,0.515 -0.357,1.05 -1.1362,1.491 z"
     fill="#997205"
     stroke="#997205"
     stroke-linejoin="round"
     id="path24"
     inkscape:export-filename="C:\Users\shere\OneDrive\Documents\code\AIPoweredPoemsSheri\img\favicon.png"
     inkscape:export-xdpi="8.0418844"
     inkscape:export-ydpi="8.0418844" />
  <path
     d="m 95.068261,138.359 2.7318,-3.036 -9.63,-5.908 c -1.3612,-0.76 -2.9233,-0.288 -3.8135,0.649 -0.4433,0.467 -0.6855,1.022 -0.6429,1.55 0.0415,0.515 0.357,1.05 1.1362,1.491 z"
     fill="#997205"
     stroke="#997205"
     stroke-linejoin="round"
     id="path26"
     inkscape:export-filename="C:\Users\shere\OneDrive\Documents\code\AIPoweredPoemsSheri\img\favicon.png"
     inkscape:export-xdpi="8.0418844"
     inkscape:export-ydpi="8.0418844" />
  <path
     d="m 95.281261,145.91 -2.7318,-3.036 9.629999,-5.908 c 1.3612,-0.76 2.9233,-0.288 3.8136,0.65 0.4432,0.466 0.6854,1.021 0.6428,1.549 -0.0415,0.515 -0.357,1.05 -1.1362,1.491 z"
     fill="#997205"
     stroke="#997205"
     stroke-linejoin="round"
     id="path28"
     inkscape:export-filename="C:\Users\shere\OneDrive\Documents\code\AIPoweredPoemsSheri\img\favicon.png"
     inkscape:export-xdpi="8.0418844"
     inkscape:export-ydpi="8.0418844" />
  <path
     d="m 95.068261,145.91 2.7318,-3.036 -9.63,-5.908 c -1.3612,-0.76 -2.9233,-0.288 -3.8135,0.65 -0.4433,0.466 -0.6855,1.021 -0.6429,1.549 0.0415,0.515 0.357,1.05 1.1362,1.491 z"
     fill="#997205"
     stroke="#997205"
     stroke-linejoin="round"
     id="path30"
     inkscape:export-filename="C:\Users\shere\OneDrive\Documents\code\AIPoweredPoemsSheri\img\favicon.png"
     inkscape:export-xdpi="8.0418844"
     inkscape:export-ydpi="8.0418844" />
</svg>
